<svg width="146" height="298" viewBox="0 0 146 298" fill="none" xmlns="http://www.w3.org/2000/svg">
<path d="M5 295C4.05632 297.072 0 298 0 298C0 298 50 173.5 50 130.099C50 79 0 0 0 0C18.7349 19.9449 65 85.5 65 130.099C65 168.386 42.0094 216.734 19.6921 263.667C14.6709 274.226 9.68353 284.715 5 295Z" fill="white"/>
<path fill-rule="evenodd" clip-rule="evenodd" d="M58.9125 26.0436C52.9394 29.2903 43 34.0872 43 34.0872C43 34.0872 52.4974 46.0445 58.0711 54.0764C64.3664 63.1482 73.1423 78 73.1423 78C73.1423 78 81.8314 63.2358 88.0711 54.2187C93.59 46.2434 103 34.3718 103 34.3718C103 34.3718 92.9721 29.4872 86.9453 26.1859C81.1881 23.0323 72.8577 18 72.8577 18C72.8577 18 64.6123 22.9454 58.9125 26.0436ZM62.3327 27.9885C57.7774 30.5207 51.7662 35.1571 51.7662 35.1571C51.7662 35.1571 57.2087 45.2301 61.4498 51.1895C65.5854 57.0007 73.1007 65.2547 73.1007 65.2547C73.1007 65.2547 80.5547 57.0615 84.6509 51.2902C88.8532 45.3694 94.2338 35.3585 94.2338 35.3585C94.2338 35.3585 88.1616 30.6635 83.5665 28.0892C79.6457 25.8926 72.8993 22.7871 72.8993 22.7871C72.8993 22.7871 66.2162 25.8298 62.3327 27.9885Z" fill="white"/>
<path d="M146 298C146 298 141.944 297.072 141 295C136.316 284.714 131.329 274.226 126.308 263.667C103.991 216.734 81 168.386 81 130.099C81 85.5 127.265 19.9449 146 0C146 0 96 79 96 130.099C96 173.5 146 298 146 298Z" fill="white"/>
</svg>
