<svg width="35" height="33" viewBox="0 0 35 33" fill="none" xmlns="http://www.w3.org/2000/svg">
<path d="M32.96 1L19.82 10.72L22.27 4.99L32.96 1Z" fill="#E17726" stroke="#E17726" stroke-width="0.25" stroke-linecap="round" stroke-linejoin="round"/>
<path d="M2.66 1L15.68 10.8L13.35 5L2.66 1ZM28.23 23.53L24.73 28.87L32.22 30.93L34.36 23.65L28.23 23.53V23.53ZM1.27 23.65L3.4 30.93L10.87 28.87L7.39 23.53L1.27 23.65V23.65Z" fill="#E27625" stroke="#E27625" stroke-width="0.25" stroke-linecap="round" stroke-linejoin="round"/>
<path d="M10.47 14.51L8.39 17.65L15.79 17.99L15.55 10.02L10.47 14.52V14.51ZM25.15 14.52L19.99 9.92001L19.82 17.99L27.22 17.65L25.15 14.52V14.52ZM10.87 28.87L15.36 26.71L11.5 23.71L10.87 28.87ZM20.27 26.7L24.73 28.87L24.13 23.7L20.27 26.7Z" fill="#E27625" stroke="#E27625" stroke-width="0.25" stroke-linecap="round" stroke-linejoin="round"/>
<path d="M24.73 28.87L20.27 26.71L20.63 29.61L20.59 30.84L24.73 28.87ZM10.87 28.87L15.03 30.84L15 29.61L15.36 26.71L10.87 28.87Z" fill="#D5BFB2" stroke="#D5BFB2" stroke-width="0.25" stroke-linecap="round" stroke-linejoin="round"/>
<path d="M15.1 21.78L11.4 20.7L14.02 19.5L15.11 21.78H15.1ZM20.51 21.78L21.61 19.49L24.24 20.69L20.51 21.79V21.78Z" fill="#233447" stroke="#233447" stroke-width="0.25" stroke-linecap="round" stroke-linejoin="round"/>
<path d="M10.87 28.87L11.52 23.53L7.39 23.65L10.87 28.87ZM24.1 23.53L24.73 28.87L28.23 23.65L24.1 23.53ZM27.23 17.65L19.83 17.99L20.51 21.79L21.61 19.49L24.24 20.69L27.23 17.65V17.65ZM11.4 20.7L14.02 19.5L15.11 21.78L15.8 17.98L8.4 17.65L11.4 20.7V20.7Z" fill="#CC6228" stroke="#CC6228" stroke-width="0.25" stroke-linecap="round" stroke-linejoin="round"/>
<path d="M8.4 17.65L11.5 23.7L11.4 20.7L8.4 17.65ZM24.24 20.7L24.12 23.7L27.22 17.65L24.24 20.7ZM15.8 17.99L15.1 21.79L15.98 26.27L16.18 20.36L15.8 17.99ZM19.82 17.99L19.46 20.35L19.64 26.27L20.51 21.78L19.82 17.98V17.99Z" fill="#E27525" stroke="#E27525" stroke-width="0.25" stroke-linecap="round" stroke-linejoin="round"/>
<path d="M20.51 21.78L19.64 26.27L20.27 26.71L24.12 23.71L24.24 20.7L20.51 21.78ZM11.4 20.7L11.5 23.7L15.36 26.7L15.98 26.27L15.11 21.78L11.39 20.7H11.4Z" fill="#F5841F" stroke="#F5841F" stroke-width="0.25" stroke-linecap="round" stroke-linejoin="round"/>
<path d="M20.6 30.84L20.63 29.61L20.29 29.33H15.33L15 29.61L15.03 30.84L10.87 28.87L12.33 30.07L15.28 32.1H20.33L23.29 30.06L24.73 28.87L20.59 30.84H20.6Z" fill="#C0AC9D" stroke="#C0AC9D" stroke-width="0.25" stroke-linecap="round" stroke-linejoin="round"/>
<path d="M20.27 26.7L19.64 26.27H15.98L15.36 26.71L15 29.61L15.33 29.33H20.29L20.63 29.61L20.27 26.71V26.7Z" fill="#161616" stroke="#161616" stroke-width="0.25" stroke-linecap="round" stroke-linejoin="round"/>
<path d="M33.52 11.35L34.62 6L32.96 1L20.26 10.4L25.15 14.51L32.05 16.52L33.57 14.75L32.91 14.27L33.96 13.31L33.16 12.69L34.21 11.89L33.51 11.35H33.52ZM1 5.99L2.12 11.35L1.4 11.88L2.47 12.68L1.67 13.31L2.71 14.27L2.05 14.75L3.57 16.52L10.47 14.52L15.36 10.39L2.66 1L1 5.99Z" fill="#763E1A" stroke="#763E1A" stroke-width="0.25" stroke-linecap="round" stroke-linejoin="round"/>
<path d="M32.05 16.52L25.15 14.52L27.23 17.65L24.13 23.7L28.23 23.65H34.36L32.05 16.52ZM10.47 14.51L3.57 16.52L1.27 23.65H7.4L11.5 23.7L8.4 17.65L10.48 14.51H10.47ZM19.82 17.99L20.27 10.39L22.27 4.98999H13.35L15.35 10.39L15.8 17.99L15.97 20.37V26.27H19.64L19.66 20.37L19.82 17.99Z" fill="#F5841F" stroke="#F5841F" stroke-width="0.25" stroke-linecap="round" stroke-linejoin="round"/>
</svg>
